<?xml version="1.0" encoding="utf-8"?>
<!-- Generator: Adobe Illustrator 28.2.0, SVG Export Plug-In . SVG Version: 6.00 Build 0)  -->
<svg version="1.1" id="Layer_1" xmlns="http://www.w3.org/2000/svg" xmlns:xlink="http://www.w3.org/1999/xlink" x="0px" y="0px"
	 viewBox="0 0 144 40" style="enable-background:new 0 0 144 40;" xml:space="preserve">
<style type="text/css">
	.st0{display:none;fill-rule:evenodd;clip-rule:evenodd;fill:#615FFF;}
	.st1{display:none;fill:#615FFF;}
	.st2{display:none;}
	.st3{fill:#000099;}
</style>
<path class="st0" d="M15,5c5.6,0,8.4,0,10.5,1.2C26.9,7,28,8.1,28.8,9.5C30,11.6,30,14.4,30,20s0,8.4-1.2,10.5
	c-0.8,1.4-1.9,2.5-3.3,3.3C23.4,35,20.6,35,15,35s-8.4,0-10.5-1.2C3.1,33,2,31.9,1.2,30.5C0,28.4,0,25.6,0,20s0-8.4,1.2-10.5
	C2,8.1,3.1,7,4.5,6.2C6.6,5,9.4,5,15,5z M16.5,8c-6.6,0-12,5.4-12,12s5.4,12,12,12s12-5.4,12-12S23.1,8,16.5,8z"/>
<path class="st1" d="M28,20c0,3.9-3.6,7-8,7s-8-3.1-8-7s3.6-7,8-7S28,16.1,28,20z"/>
<path class="st2" d="M44.9,24.5V21h5.2c0.7,0,1.3-0.1,1.9-0.4s1-0.7,1.3-1.2s0.5-1.2,0.5-1.9c0-0.7-0.2-1.4-0.5-1.9
	c-0.3-0.6-0.8-1-1.3-1.2S50.8,14,50.1,14h-5.2v-3.6h5.7c1.4,0,2.7,0.3,3.8,0.9c1.2,0.6,2.1,1.4,2.7,2.5c0.7,1,1,2.3,1,3.7
	c0,1.5-0.3,2.7-1,3.8c-0.7,1-1.6,1.9-2.7,2.4c-1.1,0.6-2.4,0.9-3.8,0.9L44.9,24.5L44.9,24.5z M41.7,32.9V10.4h4.4v22.5H41.7z
	 M61,32.9V17.4h4.2v15.5H61z M63.1,14.9c-0.7,0-1.2-0.2-1.7-0.7c-0.4-0.5-0.7-1-0.7-1.7s0.2-1.2,0.7-1.7c0.4-0.5,1-0.7,1.7-0.7
	s1.3,0.2,1.7,0.7c0.4,0.5,0.7,1,0.7,1.7s-0.2,1.3-0.7,1.7C64.4,14.7,63.8,14.9,63.1,14.9z M78.6,32.9l-4.1-6.3L73.7,26l-6-8.5h5
	l3.7,5.7l0.8,0.6l6.4,9.2L78.6,32.9L78.6,32.9z M67.3,32.9l6.3-8.8l2.4,2.8l-4,6H67.3z M77.3,25.9l-2.5-2.8l3.7-5.7h4.7L77.3,25.9z
	 M92.7,33.2c-1.6,0-3.1-0.3-4.3-1c-1.3-0.7-2.3-1.7-3-2.9c-0.7-1.2-1.1-2.6-1.1-4.2c0-1.5,0.4-2.9,1.1-4.1s1.7-2.2,2.9-2.9
	c1.2-0.7,2.6-1.1,4.1-1.1s2.8,0.3,3.9,1c1.2,0.7,2,1.6,2.7,2.8c0.7,1.2,1,2.5,1,3.9c0,0.3,0,0.6-0.1,0.9c0,0.3-0.1,0.6-0.2,1h-13
	v-3.1h11L96,24.8c0-0.9-0.2-1.7-0.5-2.3c-0.3-0.6-0.7-1.1-1.2-1.4s-1.2-0.5-2-0.5s-1.6,0.2-2.2,0.6s-1.1,0.9-1.4,1.6
	s-0.5,1.5-0.5,2.4s0.2,1.8,0.5,2.5c0.4,0.7,0.9,1.2,1.5,1.6c0.7,0.4,1.4,0.5,2.3,0.5c0.8,0,1.5-0.1,2.1-0.4s1.2-0.7,1.7-1.2l2.5,2.5
	c-0.7,0.9-1.7,1.5-2.8,2C95.1,33,93.9,33.2,92.7,33.2z M102.6,32.9V9.8h4.2v23.1H102.6z M113.4,33.2c-0.8,0-1.4-0.3-1.9-0.8
	s-0.7-1.1-0.7-1.9s0.2-1.4,0.7-1.9s1.1-0.8,1.9-0.8c0.7,0,1.4,0.3,1.9,0.8s0.7,1.1,0.7,1.9s-0.2,1.4-0.7,1.9
	C114.7,33,114.1,33.2,113.4,33.2z M119.9,32.9V17.4h4.2v15.5H119.9z M122,14.9c-0.7,0-1.2-0.2-1.7-0.7c-0.4-0.5-0.7-1-0.7-1.7
	s0.2-1.2,0.7-1.7c0.4-0.5,1-0.7,1.7-0.7s1.3,0.2,1.7,0.7c0.4,0.5,0.7,1,0.7,1.7s-0.2,1.3-0.7,1.7C123.3,14.7,122.7,14.9,122,14.9z
	 M135.1,33.2c-1.6,0-3-0.4-4.2-1.1c-1.2-0.7-2.2-1.7-3-2.9c-0.7-1.2-1.1-2.6-1.1-4.1s0.4-2.9,1.1-4.1s1.7-2.2,3-2.9
	c1.3-0.7,2.7-1.1,4.2-1.1c1.6,0,3,0.4,4.2,1.1c1.3,0.7,2.2,1.7,3,2.9c0.7,1.2,1.1,2.5,1.1,4.1c0,1.5-0.4,2.9-1.1,4.1
	c-0.7,1.2-1.7,2.2-3,2.9C138.1,32.9,136.7,33.2,135.1,33.2z M135.1,29.3c0.8,0,1.5-0.2,2.1-0.5c0.6-0.4,1.1-0.9,1.4-1.5
	c0.3-0.6,0.5-1.4,0.5-2.2c0-0.8-0.2-1.5-0.5-2.1s-0.8-1.1-1.4-1.4c-0.6-0.4-1.3-0.5-2.1-0.5s-1.5,0.2-2,0.5
	c-0.6,0.3-1.1,0.8-1.4,1.4c-0.3,0.6-0.5,1.3-0.5,2.1c0,0.8,0.2,1.5,0.5,2.2c0.3,0.6,0.8,1.1,1.4,1.5
	C133.6,29.1,134.3,29.3,135.1,29.3z"/>
<g>
	<g>
		<path class="st3" d="M34,31.2H23.7v-0.4c0.1,0,0.3,0,0.5-0.1s0.4-0.2,0.5-0.4c0.2-0.2,0.3-0.4,0.4-0.7c0.1-0.3,0.2-0.6,0.2-1v-9.5
			c0-0.7-0.2-1.2-0.6-1.7c-0.4-0.4-1-0.7-1.6-0.7s-1.1,0.2-1.5,0.7s-0.6,1-0.6,1.7v9.3c0,0.9,0.2,1.4,0.6,1.8
			c0.4,0.3,0.8,0.5,1.2,0.5v0.4H12.5v-0.4c0.1,0,0.3,0,0.5-0.1s0.3-0.2,0.5-0.4c0.2-0.2,0.3-0.4,0.4-0.7c0.1-0.3,0.2-0.6,0.2-1V19
			c0-0.7-0.2-1.2-0.6-1.7c-0.4-0.4-0.9-0.7-1.6-0.7c-0.6,0-1,0.2-1.3,0.6s-0.6,0.7-0.8,1v6.4v3.6c0,0.5,0.1,0.9,0.2,1.2
			c0.1,0.3,0.3,0.6,0.4,0.8c0.2,0.2,0.4,0.3,0.5,0.4c0.2,0.1,0.3,0.1,0.5,0.1v0.4H0.6v-0.4c0.1,0,0.3-0.1,0.5-0.2s0.5-0.3,0.7-0.5
			s0.4-0.5,0.6-0.8s0.2-0.7,0.2-1.1v-8.9c0-0.5-0.1-1-0.2-1.3c-0.2-0.3-0.3-0.6-0.5-0.8c-0.2-0.2-0.4-0.3-0.6-0.4s-0.4-0.1-0.5-0.1
			v-0.2L9,13.8c0.3-0.1,0.5-0.1,0.6-0.1c0.2,0,0.2,0.2,0.2,0.6v2.6c0.2-0.2,0.4-0.5,0.8-0.9c0.3-0.4,0.8-0.7,1.3-1s1.1-0.6,1.7-0.9
			c0.6-0.2,1.4-0.4,2.1-0.4c1.2,0,2.2,0.3,3.1,0.8s1.5,1.3,1.9,2.4c0.2-0.3,0.5-0.6,0.9-1c0.4-0.4,0.8-0.7,1.3-1s1.1-0.6,1.7-0.8
			s1.4-0.3,2.2-0.3c1.6,0,2.9,0.4,3.9,1.3c1,0.9,1.5,2.2,1.5,4.1v9.3c0,0.9,0.2,1.4,0.6,1.8c0.4,0.3,0.8,0.5,1.2,0.5V31.2z"/>
		<path class="st3" d="M53.5,24.5c-0.1,0.4-0.3,1-0.7,1.7c-0.4,0.8-0.9,1.6-1.7,2.4c-0.7,0.8-1.6,1.5-2.7,2.1
			c-1.1,0.6-2.4,0.9-3.9,0.9c-1.3,0-2.5-0.2-3.5-0.6c-1.1-0.4-2-1-2.8-1.7s-1.4-1.7-1.8-2.7c-0.4-1.1-0.7-2.3-0.7-3.6
			c0-1.4,0.3-2.6,0.8-3.8c0.5-1.1,1.2-2.1,2.1-3c0.9-0.8,1.9-1.5,3.1-1.9c1.2-0.5,2.4-0.7,3.8-0.7c1.2,0,2.3,0.2,3.3,0.6
			c1,0.4,1.8,0.9,2.5,1.5c0.7,0.6,1.3,1.4,1.6,2.2c0.4,0.8,0.6,1.6,0.6,2.5c0,0.2,0,0.4-0.1,0.5s-0.2,0.2-0.5,0.2H42.3
			c0.2,2,0.7,3.6,1.5,4.7c0.8,1.2,2.1,1.7,3.7,1.7c0.8,0,1.4-0.1,2.1-0.4c0.6-0.3,1.2-0.6,1.6-0.9c0.5-0.4,0.9-0.7,1.2-1.1
			s0.5-0.6,0.6-0.8c0.1,0,0.2-0.1,0.3,0C53.5,24.3,53.5,24.4,53.5,24.5 M46.8,18.6c0-0.5,0-1.1-0.1-1.6s-0.2-1-0.4-1.4
			s-0.4-0.7-0.6-1c-0.3-0.2-0.6-0.4-0.9-0.4c-0.3,0-0.5,0.1-0.8,0.3s-0.6,0.5-0.8,0.9s-0.5,0.9-0.6,1.6c-0.2,0.6-0.2,1.4-0.2,2.4
			c0,0.2,0,0.3,0,0.5s0,0.3,0,0.5h3.8c0.3,0,0.5-0.1,0.6-0.4C46.8,19.6,46.8,19.2,46.8,18.6"/>
		<path class="st3" d="M72.8,17.4c0,0.5-0.1,0.9-0.3,1.4c-0.2,0.4-0.4,0.8-0.7,1.2c-0.3,0.3-0.7,0.6-1.2,0.8
			c-0.4,0.2-0.9,0.3-1.5,0.3c-0.5,0-0.9-0.1-1.2-0.2c-0.3-0.1-0.6-0.3-0.9-0.5c-0.2-0.2-0.4-0.4-0.6-0.7c-0.2-0.2-0.3-0.5-0.4-0.7
			c-0.2-0.3-0.3-0.6-0.4-0.9c-0.1-0.3-0.2-0.4-0.4-0.4c-0.1,0-0.3,0.1-0.5,0.3c-0.2,0.2-0.4,0.6-0.7,1.1v9.1c0,0.5,0.1,0.9,0.2,1.2
			c0.1,0.3,0.3,0.6,0.4,0.8c0.2,0.2,0.4,0.3,0.5,0.4c0.2,0.1,0.3,0.1,0.5,0.1v0.4H54.9v-0.4c0.1,0,0.3-0.1,0.5-0.2s0.5-0.3,0.7-0.5
			s0.4-0.5,0.6-0.8c0.2-0.3,0.2-0.7,0.2-1.1v-8.9c0-0.5-0.1-1-0.2-1.3c-0.2-0.3-0.3-0.6-0.5-0.8c-0.2-0.2-0.4-0.3-0.6-0.4
			c-0.2-0.1-0.4-0.1-0.5-0.1v-0.4l8.2-2.6c0.3-0.1,0.5-0.1,0.6-0.1c0.2,0,0.2,0.2,0.2,0.6V17c0.3-0.4,0.6-0.8,1-1.2s0.8-0.7,1.2-1.1
			c0.4-0.3,0.9-0.6,1.4-0.8s1-0.3,1.5-0.3c1,0,1.9,0.3,2.6,1C72.5,15.6,72.8,16.4,72.8,17.4"/>
		<path class="st3" d="M96.3,31.2H86v-0.4c0.1,0,0.3,0,0.5-0.1s0.3-0.2,0.5-0.4c0.2-0.2,0.3-0.4,0.4-0.7c0.1-0.3,0.2-0.6,0.2-1v-9.5
			c0-0.7-0.2-1.2-0.6-1.7c-0.4-0.4-0.9-0.7-1.6-0.7c-0.6,0-1.1,0.2-1.5,0.6s-0.7,0.7-0.9,1v6.4v3.6c0,1,0.2,1.6,0.5,2
			s0.7,0.5,1.1,0.5v0.4H73.8v-0.4c0.4,0,0.9-0.2,1.4-0.6s0.7-1.1,0.7-1.9v-8.9c0-0.5-0.1-1-0.2-1.3c-0.2-0.3-0.3-0.6-0.5-0.8
			c-0.2-0.2-0.4-0.3-0.6-0.4s-0.4-0.1-0.5-0.1v-0.4l8.2-2.6c0.3-0.1,0.5-0.1,0.6-0.1c0.2,0,0.2,0.2,0.2,0.6v2.6
			c0.3-0.4,0.7-0.7,1.1-1.1c0.4-0.4,0.9-0.7,1.4-1s1.1-0.6,1.7-0.8s1.3-0.3,2.1-0.3c0.8,0,1.5,0.1,2.1,0.3s1.2,0.6,1.7,1
			s0.8,1,1.1,1.7c0.3,0.7,0.4,1.5,0.4,2.4v9.3c0,0.9,0.2,1.4,0.6,1.8c0.4,0.3,0.8,0.5,1.2,0.5v0.5H96.3z"/>
		<path class="st3" d="M115.8,24.5c-0.1,0.4-0.3,1-0.7,1.7c-0.4,0.8-0.9,1.6-1.7,2.4c-0.7,0.8-1.6,1.5-2.7,2.1s-2.4,0.9-3.9,0.9
			c-1.3,0-2.5-0.2-3.5-0.6c-1.1-0.4-2-1-2.8-1.7s-1.4-1.7-1.8-2.7C98.3,25.5,98,24.3,98,23c0-1.4,0.3-2.6,0.8-3.8
			c0.5-1.1,1.2-2.1,2.1-3c0.9-0.8,1.9-1.5,3.1-1.9c1.2-0.5,2.4-0.7,3.8-0.7c1.2,0,2.3,0.2,3.3,0.6c1,0.4,1.8,0.9,2.5,1.5
			c0.7,0.6,1.3,1.4,1.6,2.2c0.4,0.8,0.6,1.6,0.6,2.5c0,0.2,0,0.4-0.1,0.5s-0.2,0.2-0.5,0.2h-10.4c0.2,2,0.7,3.6,1.5,4.7
			c0.8,1.2,2.1,1.7,3.7,1.7c0.8,0,1.4-0.1,2.1-0.4c0.6-0.3,1.2-0.6,1.6-0.9c0.5-0.4,0.9-0.7,1.2-1.1c0.3-0.4,0.5-0.6,0.6-0.8
			c0.1,0,0.2-0.1,0.3,0C115.7,24.3,115.8,24.4,115.8,24.5 M109.1,18.6c0-0.5,0-1.1-0.1-1.6s-0.2-1-0.4-1.4c-0.2-0.4-0.4-0.7-0.6-1
			c-0.3-0.2-0.6-0.4-0.9-0.4s-0.5,0.1-0.8,0.3s-0.6,0.5-0.8,0.9c-0.2,0.4-0.5,0.9-0.6,1.6c-0.2,0.6-0.2,1.4-0.2,2.4
			c0,0.2,0,0.3,0,0.5s0,0.3,0,0.5h3.8c0.3,0,0.5-0.1,0.6-0.4C109,19.6,109.1,19.2,109.1,18.6"/>
		<path class="st3" d="M131,26.8c-0.1,0.4-0.3,0.8-0.7,1.3c-0.3,0.5-0.8,1.1-1.3,1.6c-0.6,0.5-1.2,0.9-2,1.3s-1.6,0.5-2.6,0.5
			c-1.6,0-2.8-0.4-3.8-1.3s-1.5-2.1-1.5-3.5V16.4h-1.4c-0.1,0-0.3-0.1-0.4-0.2c-0.1-0.1,0-0.3,0.2-0.6l8-7.1
			c0.1-0.1,0.2-0.2,0.4-0.2c0.1,0,0.2,0.2,0.2,0.4v5.2h3.9c0,0,0.1,0,0.2,0.1c0.1,0,0.1,0.1,0.1,0.1l-1,2c0,0-0.1,0.1-0.1,0.2
			s-0.1,0.1-0.2,0.1h-2.7v9.3c0,0.7,0.2,1.3,0.5,1.8s0.8,0.7,1.4,0.7c0.3,0,0.6-0.1,0.9-0.2c0.3-0.1,0.6-0.3,0.8-0.5
			s0.4-0.4,0.6-0.5c0.2-0.2,0.3-0.4,0.4-0.5c0.1,0,0.2,0,0.2,0C131,26.6,131,26.7,131,26.8"/>
	</g>
	<path class="st3" d="M143.4,13.3L143.4,13.3c-2.7,0-4.9,2.2-4.9,4.9c0-2.7-2.2-4.9-4.9-4.9c2.7,0,4.9-2.2,4.9-4.9
		C138.5,11.1,140.7,13.3,143.4,13.3"/>
</g>
</svg>
